<?xml version="1.0" standalone="no"?>
<!DOCTYPE svg PUBLIC "-//W3C//DTD SVG 20010904//EN"
 "http://www.w3.org/TR/2001/REC-SVG-20010904/DTD/svg10.dtd">
<svg version="1.0" xmlns="http://www.w3.org/2000/svg"
 width="474.000000pt" height="220.000000pt" viewBox="0 0 474.000000 220.000000"
 preserveAspectRatio="xMidYMid meet">

<g transform="translate(0.000000,220.000000) scale(0.100000,-0.100000)"
fill="#000000" stroke="none">
<path d="M607 1960 c-105 -27 -197 -105 -245 -208 -21 -47 -27 -75 -30 -159
-5 -122 7 -167 48 -181 21 -8 33 -7 49 5 20 13 21 20 15 107 -8 106 7 167 56
234 55 76 176 112 278 83 90 -26 129 70 44 106 -44 18 -164 26 -215 13z"/>
<path d="M3940 1959 c-66 -20 -87 -60 -55 -103 13 -17 21 -18 87 -10 97 12
162 2 212 -33 86 -60 123 -156 112 -291 -8 -93 -1 -112 44 -112 54 0 65 28 65
164 0 117 -1 124 -33 188 -41 83 -93 137 -167 174 -48 23 -74 28 -144 31 -47
1 -102 -2 -121 -8z"/>
<path d="M4015 1684 c-351 -143 -751 -243 -1160 -291 -189 -22 -718 -25 -900
-5 -419 46 -791 135 -1158 278 -77 30 -150 54 -163 54 -14 0 -30 -10 -39 -24
-15 -23 -15 -30 5 -103 86 -307 279 -607 517 -804 282 -232 588 -366 973 -425
153 -23 432 -23 594 0 617 88 1114 426 1371 931 59 116 119 278 131 357 7 42
-14 78 -45 78 -9 -1 -65 -21 -126 -46z m10 -167 c-9 -31 -42 -107 -73 -169
l-57 -113 -105 -52 c-216 -108 -580 -211 -960 -272 -107 -17 -111 -19 -55 -20
190 -3 629 37 804 74 63 14 116 23 118 21 11 -10 -207 -189 -313 -258 -194
-125 -486 -225 -749 -258 -128 -16 -400 -14 -528 4 -314 45 -605 161 -837 335
-111 83 -220 188 -185 177 57 -16 162 -37 260 -50 168 -23 696 -52 679 -38 -5
5 -67 16 -137 26 -304 42 -692 151 -918 258 -85 39 -87 42 -128 113 -38 66
-98 197 -115 252 -7 22 -5 22 91 -13 351 -127 667 -202 1053 -249 184 -22 628
-31 827 -16 420 32 857 125 1209 258 71 27 130 48 132 47 2 -1 -4 -27 -13 -57z"/>
</g>
</svg>
